<svg width="512" height="512" viewBox="0 0 512 512" fill="none" xmlns="http://www.w3.org/2000/svg" role="img" aria-labelledby="title desc">
  <title id="title">Executive Virtual AI Assistant logo</title>
  <desc id="desc">A luxury executive AI crest with a gold shield, crown, and cyan intelligence orbit.</desc>
  <defs>
    <linearGradient id="tile" x1="70" y1="52" x2="452" y2="472" gradientUnits="userSpaceOnUse">
      <stop stop-color="#020617"/>
      <stop offset="0.46" stop-color="#0F172A"/>
      <stop offset="1" stop-color="#020617"/>
    </linearGradient>
    <linearGradient id="rim" x1="86" y1="54" x2="426" y2="456" gradientUnits="userSpaceOnUse">
      <stop stop-color="#FFF7D2"/>
      <stop offset="0.32" stop-color="#D6A641"/>
      <stop offset="0.64" stop-color="#38BDF8"/>
      <stop offset="1" stop-color="#2563EB"/>
    </linearGradient>
    <linearGradient id="gold" x1="150" y1="116" x2="360" y2="382" gradientUnits="userSpaceOnUse">
      <stop stop-color="#FFF8D4"/>
      <stop offset="0.42" stop-color="#D8AF55"/>
      <stop offset="1" stop-color="#8A5A18"/>
    </linearGradient>
    <linearGradient id="cyan" x1="135" y1="215" x2="381" y2="307" gradientUnits="userSpaceOnUse">
      <stop stop-color="#A5F3FC"/>
      <stop offset="0.5" stop-color="#22D3EE"/>
      <stop offset="1" stop-color="#2563EB"/>
    </linearGradient>
    <radialGradient id="glow" cx="0" cy="0" r="1" gradientUnits="userSpaceOnUse" gradientTransform="translate(256 236) rotate(90) scale(260)">
      <stop stop-color="#38BDF8" stop-opacity="0.28"/>
      <stop offset="0.42" stop-color="#D8AF55" stop-opacity="0.13"/>
      <stop offset="1" stop-color="#020617" stop-opacity="0"/>
    </radialGradient>
    <filter id="shadow" x="70" y="72" width="372" height="356" filterUnits="userSpaceOnUse" color-interpolation-filters="sRGB">
      <feDropShadow dx="0" dy="18" stdDeviation="18" flood-color="#000000" flood-opacity="0.42"/>
      <feDropShadow dx="0" dy="0" stdDeviation="8" flood-color="#38BDF8" flood-opacity="0.22"/>
    </filter>
  </defs>
  <rect x="34" y="34" width="444" height="444" rx="112" fill="url(#tile)"/>
  <rect x="34" y="34" width="444" height="444" rx="112" fill="url(#glow)"/>
  <rect x="47" y="47" width="418" height="418" rx="99" stroke="url(#rim)" stroke-width="9"/>
  <path d="M95 86L417 408" stroke="#D8AF55" stroke-opacity="0.16" stroke-width="8" stroke-linecap="round"/>
  <path d="M416 97L96 417" stroke="#38BDF8" stroke-opacity="0.14" stroke-width="7" stroke-linecap="round"/>
  <g filter="url(#shadow)">
    <path d="M177 158H335L366 224L341 329L256 384L171 329L146 224L177 158Z" fill="#020617" fill-opacity="0.38" stroke="url(#gold)" stroke-width="16" stroke-linejoin="round"/>
    <path d="M212 136L232 108L256 136L280 108L300 136H212Z" fill="#020617" fill-opacity="0.2" stroke="url(#gold)" stroke-width="10" stroke-linejoin="round"/>
    <path d="M213 225L256 306L314 225" stroke="url(#gold)" stroke-width="28" stroke-linecap="round" stroke-linejoin="round"/>
    <path d="M149 246C201 199 282 191 362 256" stroke="url(#cyan)" stroke-width="13" stroke-linecap="round"/>
    <path d="M151 269C213 326 306 322 366 244" stroke="url(#cyan)" stroke-width="10" stroke-linecap="round" stroke-opacity="0.92"/>
    <circle cx="149" cy="246" r="11" fill="#A5F3FC"/>
    <circle cx="362" cy="256" r="12" fill="#22D3EE"/>
    <circle cx="256" cy="306" r="14" fill="#FFF8D4"/>
    <path d="M378 142L386 162L407 170L386 178L378 199L370 178L349 170L370 162L378 142Z" fill="#FFF7D2"/>
  </g>
</svg>
