<svg width="512" height="512" viewBox="0 0 512 512" fill="none" xmlns="http://www.w3.org/2000/svg" role="img" aria-labelledby="title desc">
  <title id="title">Executive Virtual AI Assistant logo</title>
  <desc id="desc">A premium dark app icon with a gold and cyan executive AI monogram.</desc>
  <defs>
    <linearGradient id="tile" x1="82" y1="64" x2="438" y2="456" gradientUnits="userSpaceOnUse">
      <stop stop-color="#020617"/>
      <stop offset="0.52" stop-color="#101827"/>
      <stop offset="1" stop-color="#020617"/>
    </linearGradient>
    <linearGradient id="rim" x1="96" y1="74" x2="418" y2="438" gradientUnits="userSpaceOnUse">
      <stop stop-color="#F8E7B0"/>
      <stop offset="0.42" stop-color="#D8AF55"/>
      <stop offset="0.66" stop-color="#61E6FF"/>
      <stop offset="1" stop-color="#1D4ED8"/>
    </linearGradient>
    <linearGradient id="gold" x1="154" y1="158" x2="357" y2="344" gradientUnits="userSpaceOnUse">
      <stop stop-color="#FFF4C7"/>
      <stop offset="0.48" stop-color="#D6A641"/>
      <stop offset="1" stop-color="#8A5A18"/>
    </linearGradient>
    <linearGradient id="cyan" x1="160" y1="218" x2="366" y2="190" gradientUnits="userSpaceOnUse">
      <stop stop-color="#7DD3FC"/>
      <stop offset="1" stop-color="#22D3EE"/>
    </linearGradient>
    <radialGradient id="glow" cx="0" cy="0" r="1" gradientUnits="userSpaceOnUse" gradientTransform="translate(350 142) rotate(123) scale(260)">
      <stop stop-color="#38BDF8" stop-opacity="0.32"/>
      <stop offset="0.5" stop-color="#F8E7B0" stop-opacity="0.12"/>
      <stop offset="1" stop-color="#020617" stop-opacity="0"/>
    </radialGradient>
    <filter id="softGlow" x="70" y="70" width="372" height="372" filterUnits="userSpaceOnUse" color-interpolation-filters="sRGB">
      <feDropShadow dx="0" dy="16" stdDeviation="18" flood-color="#000000" flood-opacity="0.34"/>
      <feDropShadow dx="0" dy="0" stdDeviation="10" flood-color="#38BDF8" flood-opacity="0.25"/>
    </filter>
  </defs>
  <rect x="34" y="34" width="444" height="444" rx="112" fill="url(#tile)"/>
  <rect x="34" y="34" width="444" height="444" rx="112" fill="url(#glow)"/>
  <rect x="46" y="46" width="420" height="420" rx="100" stroke="url(#rim)" stroke-width="10" stroke-opacity="0.9"/>
  <g filter="url(#softGlow)">
    <path d="M154 339L226 164C233 147 258 147 266 163L357 339" stroke="url(#gold)" stroke-width="31" stroke-linecap="round" stroke-linejoin="round"/>
    <path d="M213 267H306" stroke="url(#gold)" stroke-width="25" stroke-linecap="round"/>
    <path d="M159 207C198 247 255 259 310 236C331 227 350 212 369 192" stroke="url(#cyan)" stroke-width="12" stroke-linecap="round"/>
    <circle cx="226" cy="164" r="14" fill="#FFF4C7"/>
    <circle cx="154" cy="339" r="13" fill="#D6A641"/>
    <circle cx="357" cy="339" r="13" fill="#61E6FF"/>
    <circle cx="369" cy="192" r="9" fill="#22D3EE"/>
    <path d="M352 118L361 140L384 149L361 158L352 181L343 158L320 149L343 140L352 118Z" fill="#FFF7CC"/>
  </g>
</svg>
